<svg xmlns="http://www.w3.org/2000/svg" width="48.542" height="42.122" viewBox="0 0 48.542 42.122">
  <g id="knitting" transform="translate(-15.97 -54.399)">
    <path id="Path_396" data-name="Path 396" d="M343.618,276.9a.823.823,0,0,1-.8-.623,3.55,3.55,0,0,0-3.315-2.667,5.465,5.465,0,0,0-3.338,1.227,5.527,5.527,0,0,1-3.243,1.241,4.9,4.9,0,0,1-4.894-3.031.823.823,0,1,1,1.559-.527,3.315,3.315,0,0,0,3.335,1.913,4.056,4.056,0,0,0,2.326-.962,7.073,7.073,0,0,1,4.256-1.507,5.147,5.147,0,0,1,4.912,3.914.823.823,0,0,1-.8,1.022Z" transform="translate(-279.929 -195.192)" fill="#f16c00"/>
    <path id="Path_397" data-name="Path 397" d="M40.822,100.2a.823.823,0,0,1-.517-1.463l42.78-34.553a.823.823,0,1,1,1.034,1.28l-42.78,34.553a.82.82,0,0,1-.516.183Z" transform="translate(-21.558 -8.613)" fill="#8997a5"/>
    <path id="Path_398" data-name="Path 398" d="M16.8,196.332a.823.823,0,0,1-.185-1.625l46.071-10.7a.823.823,0,1,1,.372,1.6l-46.071,10.7A.826.826,0,0,1,16.8,196.332Z" transform="translate(0 -116.265)" fill="#8997a5"/>
    <path id="Path_399" data-name="Path 399" d="M168,232h18.1v9.872H168Z" transform="translate(-136.396 -159.337)" fill="#ff9c4b"/>
    <path id="Path_400" data-name="Path 400" d="M148.262,109.986S139.213,96,157.312,96s9.05,13.986,9.05,13.986Z" transform="translate(-116.658 -37.323)" fill="#ff9c4b"/>
    <path id="Path_401" data-name="Path 401" d="M166.362,328s9.05,13.986-9.05,13.986S148.262,328,148.262,328Z" transform="translate(-116.658 -245.465)" fill="#ff9c4b"/>
    <path id="Path_402" data-name="Path 402" d="M432,56.209l2.468,3.291,1.974-1.481a1.645,1.645,0,0,0,.329-2.3l-.494-.658a1.645,1.645,0,0,0-2.3-.329Z" transform="translate(-373.247)" fill="#6c7a88"/>
    <path id="Path_403" data-name="Path 403" d="M440,173.2l2.5-.5a1.645,1.645,0,0,1,1.936,1.291l.177.887a1.645,1.645,0,0,1-1.291,1.936l-2.5.5Z" transform="translate(-380.424 -106.107)" fill="#6c7a88"/>
    <g id="Group_120" data-name="Group 120" transform="translate(29.759 58.679)">
      <path id="Path_404" data-name="Path 404" d="M150.751,352.889a.824.824,0,0,0-.131-.079,15.315,15.315,0,0,0-.56,1.634,16.16,16.16,0,0,1,4.994,9.115,15.728,15.728,0,0,0,1.747.383C155.844,358.4,152.953,354.529,150.751,352.889Z" transform="translate(-150.06 -326.402)" fill="#fc8d36"/>
      <path id="Path_405" data-name="Path 405" d="M184.46,318.9a18.672,18.672,0,0,1-8.531,4.383q-.267-1.039-.581-1.973a27.749,27.749,0,0,0,8.766-4.205,16.732,16.732,0,0,0-.627-1.586,25.862,25.862,0,0,1-8.705,4.241q-.37-.926-.764-1.73A24.18,24.18,0,0,0,182,313.645h.491V312h-18.1v1.645s-.169.26-.413.711a.731.731,0,0,0,.124.06c.053.021,5.31,2.11,7.308,13.151q.79.052,1.666.063a.789.789,0,0,0-.011-.162c-1.542-8.748-5.1-12.421-7.047-13.821h2.989a16.615,16.615,0,0,1,2.48,3.2,27.016,27.016,0,0,1,3.587,10.747q.868-.045,1.641-.138c-.112-.9-.253-1.751-.418-2.562a20.074,20.074,0,0,0,8.454-4.078h0a9.422,9.422,0,0,0-.183-1.993A.846.846,0,0,0,184.46,318.9Zm-13.218-5.257h8.1a25.911,25.911,0,0,1-6.1,2.912A20.9,20.9,0,0,0,171.242,313.645Z" transform="translate(-162.548 -289.789)" fill="#f16c00"/>
      <path id="Path_406" data-name="Path 406" d="M150.751,110a.82.82,0,0,1-.131.079,15.314,15.314,0,0,1-.56-1.634,16.16,16.16,0,0,0,4.994-9.114,15.727,15.727,0,0,1,1.747-.383C155.844,104.491,152.953,108.362,150.751,110Z" transform="translate(-150.06 -98.649)" fill="#fc8d36"/>
      <path id="Path_407" data-name="Path 407" d="M184.57,104.831a9.424,9.424,0,0,0,.183-1.993h0a20.074,20.074,0,0,0-8.454-4.078c.165-.811.306-1.665.418-2.562q-.773-.093-1.641-.138a27.015,27.015,0,0,1-3.587,10.747,16.616,16.616,0,0,1-2.48,3.2h-2.989c1.952-1.4,5.506-5.073,7.047-13.821a.791.791,0,0,0,.011-.162q-.876.009-1.666.063c-2,11.041-7.254,13.13-7.308,13.151a.73.73,0,0,0-.124.06c.245.45.413.711.413.711v1.645h18.1V110H182a24.186,24.186,0,0,0-7.984-4.387c.261-.537.517-1.113.764-1.73a25.856,25.856,0,0,1,8.705,4.241,16.727,16.727,0,0,0,.627-1.586,27.753,27.753,0,0,0-8.766-4.205q.311-.934.581-1.973a18.675,18.675,0,0,1,8.531,4.383A.845.845,0,0,0,184.57,104.831Zm-11.33,2.261a25.91,25.91,0,0,1,6.1,2.912h-8.1A20.9,20.9,0,0,0,173.24,107.092Z" transform="translate(-162.549 -96.02)" fill="#f16c00"/>
      <path id="Path_408" data-name="Path 408" d="M168,272h18.1v1.645H168Z" transform="translate(-166.155 -253.903)" fill="#f16c00"/>
    </g>
  </g>
</svg>
