<svg id="Motors" xmlns="http://www.w3.org/2000/svg" width="48.336" height="30.245" viewBox="0 0 48.336 30.245">
  <path id="Path_136" data-name="Path 136" d="M329.422,161.807a8.023,8.023,0,1,0-8.023-8.023A8.032,8.032,0,0,0,329.422,161.807Zm0,0" transform="translate(-291.056 -132)" fill="#ff7300"/>
  <path id="Path_137" data-name="Path 137" d="M326.154,153.16a2.918,2.918,0,0,1-.342,3.714,5.106,5.106,0,0,0,7.22,7.221,2.918,2.918,0,0,1,3.714-.342,8.022,8.022,0,1,1-10.593-10.593Zm0,0" transform="translate(-291.057 -138.701)" fill="#35404a"/>
  <path id="Path_138" data-name="Path 138" d="M194.62,88.678a9.488,9.488,0,0,0-10.327.046l-3.478-3.478a8.784,8.784,0,0,0-12.423,0h-1.51v2.508h4.039a12.645,12.645,0,0,1,1.556,2.666,8.123,8.123,0,0,0,7.623,4.969h5.747l8.739-5.045a.974.974,0,0,0,.033-1.665Zm0,0" transform="translate(-151.128 -74.868)" fill="#ff9c4b"/>
  <path id="Path_139" data-name="Path 139" d="M194.62,109.427a9.531,9.531,0,0,0-1.577-.812l-6.622,3.823a5.839,5.839,0,0,1-2.918.782h-2.514a9.422,9.422,0,0,1,3.3-3.747l-2.1-2.1a12.285,12.285,0,0,0-2.957,3.046,2.334,2.334,0,0,1-4.063-.365l-.017-.039a15.582,15.582,0,0,0-1.916-3.282,2.916,2.916,0,0,0-2.322-1.151h-2.087c-.15.131-.3.266-.442.41h-1.51V108.5h4.039a12.645,12.645,0,0,1,1.556,2.666,8.094,8.094,0,0,0,4.746,4.486,8.6,8.6,0,0,0,2.877.482h5.747l8.739-5.045A.974.974,0,0,0,194.62,109.427Zm0,0" transform="translate(-151.128 -95.617)" fill="#ff7300"/>
  <path id="Path_140" data-name="Path 140" d="M9.725,114.34a9.725,9.725,0,1,0,9.725,9.725A9.725,9.725,0,0,0,9.725,114.34Zm0,14.345a4.62,4.62,0,1,1,4.62-4.619A4.624,4.624,0,0,1,9.725,128.685Zm0,0" transform="translate(0 -103.545)" fill="#596775"/>
  <path id="Path_141" data-name="Path 141" d="M24.969,126.175a2.918,2.918,0,0,0,.285,3.794,6.808,6.808,0,1,1-9.627,9.628,2.918,2.918,0,0,0-3.794-.286,9.726,9.726,0,1,0,13.136-13.136Zm0,0" transform="translate(-10.716 -114.263)" fill="#35404a"/>
  <path id="Path_142" data-name="Path 142" d="M288.169,185.488l.972-2.918H269.778a5.671,5.671,0,0,1-1.926-.321,1.467,1.467,0,0,0-1.723.607,1.413,1.413,0,0,0,.693,2.081,8.435,8.435,0,0,0,2.956.551Zm0,0" transform="translate(-240.805 -164.968)" fill="#8b9ba9"/>
  <path id="Path_143" data-name="Path 143" d="M277.062,212.229a8.415,8.415,0,0,1-2.908-.534,2.453,2.453,0,0,0,2.064,3.422q.419.03.844.03H294.48l.973-2.917Zm0,0" transform="translate(-248.089 -191.709)" fill="#6c7a88"/>
  <path id="Path_144" data-name="Path 144" d="M116.786,0h-1.334a1.212,1.212,0,0,0-1.183,1.475L115.675,7.8a1.212,1.212,0,0,0,1.183.949A4.38,4.38,0,0,0,121.234,4.3,4.424,4.424,0,0,0,116.786,0Zm0,0" transform="translate(-103.454)" fill="#8b9ba9"/>
  <path id="Path_145" data-name="Path 145" d="M128.544,3.23a4.273,4.273,0,0,1,.279,1.452,4.338,4.338,0,0,1-.035.634,4.389,4.389,0,0,1-3.358,3.705l.379,1.707a1.212,1.212,0,0,0,1.183.949,4.364,4.364,0,0,0,1.552-8.448Zm0,0" transform="translate(-113.588 -2.925)" fill="#6c7a88"/>
  <path id="Path_146" data-name="Path 146" d="M96.273,18.354,87.754,33.109a1.459,1.459,0,1,0,2.526,1.459L98.8,19.813a4.389,4.389,0,0,1,3.79-2.188V14.707a7.314,7.314,0,0,0-6.317,3.647Zm0,0" transform="translate(-79.292 -13.319)" fill="#8b9ba9"/>
  <path id="Path_147" data-name="Path 147" d="M234.269,14.707h-1.485a1.459,1.459,0,1,0,0,2.917h1.485a1.459,1.459,0,0,0,0-2.917Zm0,0" transform="translate(-209.486 -13.319)" fill="#35404a"/>
</svg>
