<svg id="Vintage" xmlns="http://www.w3.org/2000/svg" width="32.32" height="36.749" viewBox="0 0 32.32 36.749">
  <path id="Path_279" data-name="Path 279" d="M211.561,2.525l-.378,1.926a11.284,11.284,0,0,1-2.215,4.819l-5.647,7.151a.364.364,0,0,1-.259.138l-2.251.167a.364.364,0,0,0-.176.666l.929.621a.365.365,0,0,1,.083.529L200.256,20.3a.365.365,0,0,1-.27.138c-1.136.052-2.521.146-3.448.213a.364.364,0,0,0-.179.663l1.684,1.162a.364.364,0,0,1,.079.525l-2.013,2.55c-6.613-2.375-5.632-10.31-4.63-14.389l8.411-6.617a.366.366,0,0,1,.353-.055l1.332.5a.364.364,0,0,0,.487-.4l-.145-.887a1.144,1.144,0,0,1,.422-1.082,11.278,11.278,0,0,1,4.8-2.2l1.935-.379a2.116,2.116,0,0,1,2.484,2.483Z" transform="translate(-179.281 -0.001)" fill="#ff7300"/>
  <path id="Path_280" data-name="Path 280" d="M246.682,2.523,246.3,4.449a11.284,11.284,0,0,1-2.215,4.819l-5.647,7.151a.364.364,0,0,1-.259.138l-2.251.167a.364.364,0,0,0-.176.666l.929.621a.365.365,0,0,1,.084.529L235.378,20.3a.367.367,0,0,1-.27.138c-1.136.052-2.521.146-3.447.213a.364.364,0,0,0-.18.663l1.684,1.162a.364.364,0,0,1,.079.526l-2.013,2.549a8.2,8.2,0,0,1-1.944-.992L230.517,23a.365.365,0,0,0-.079-.526l-1.684-1.162a.364.364,0,0,1,.18-.663c.926-.067,2.311-.162,3.447-.213a.367.367,0,0,0,.27-.138l1.392-1.763a.365.365,0,0,0-.084-.529l-.929-.621a.364.364,0,0,1,.176-.666l2.251-.167a.362.362,0,0,0,.259-.138l5.647-7.151a11.283,11.283,0,0,0,2.215-4.819l.378-1.926A2.111,2.111,0,0,0,242.942.286L244.2.04a2.116,2.116,0,0,1,2.484,2.483Z" transform="translate(-214.403 0)" fill="#f16000"/>
  <path id="Path_281" data-name="Path 281" d="M115.774,161.9l-3.092,3.916q-.035.045-.072.087c-6.723-2.77-8.434-8.9-8.852-12.381l1.4-1.1a.364.364,0,0,1,.4-.034l1.694.932a.364.364,0,0,0,.54-.319v-2.474a.364.364,0,0,1,.139-.286l3.536-2.781C110.487,150.91,108.815,159.585,115.774,161.9Z" transform="translate(-98.525 -136.875)" fill="#6c7a88"/>
  <path id="Path_282" data-name="Path 282" d="M204.975,336.191l-3.092,3.916q-.035.045-.072.087a14.809,14.809,0,0,1-1.954-.975l3.15-3.989A7.845,7.845,0,0,0,204.975,336.191Z" transform="translate(-187.726 -311.169)" fill="#596775"/>
  <path id="Path_283" data-name="Path 283" d="M93.751,238l-.417.528a2.826,2.826,0,0,1-2.714,1.031l-7.406-1.318a.364.364,0,0,1-.3-.372l.361-9.475a2.831,2.831,0,0,1,1.077-2.114l.613-.483C85.2,228.861,86.573,235.447,93.751,238Z" transform="translate(-79.177 -209.588)" fill="#596775"/>
  <path id="Path_284" data-name="Path 284" d="M179.246,384.2l-.417.528a2.826,2.826,0,0,1-2.714,1.031l-1.095-.2a2.811,2.811,0,0,0,1.082-.836l1.126-1.426A13.916,13.916,0,0,0,179.246,384.2Z" transform="translate(-164.672 -355.791)" fill="#35404a"/>
  <g id="Group_76" data-name="Group 76" transform="translate(11.814 5.588)">
    <path id="Path_285" data-name="Path 285" d="M210.262,78.781,195.807,93.235a9.9,9.9,0,0,1-.356-1.189l14.038-14.038a.547.547,0,0,1,.773.773Z" transform="translate(-195.451 -77.849)" fill="#f16000"/>
  </g>
  <g id="Group_77" data-name="Group 77" transform="translate(7.751 19.308)">
    <path id="Path_286" data-name="Path 286" d="M143.719,270.218l-4.234,4.234q-.345-.445-.643-.9l4.54-4.54A9.486,9.486,0,0,0,143.719,270.218Z" transform="translate(-138.842 -269.009)" fill="#8997a5"/>
  </g>
  <g id="Group_78" data-name="Group 78" transform="translate(0 23.452)">
    <path id="Path_287" data-name="Path 287" d="M39.648,327.644l-3.124,3.124a16.413,16.413,0,0,0-4.585,8.821.547.547,0,0,1-.538.452.6.6,0,0,1-.095-.008.546.546,0,0,1-.444-.632A17.5,17.5,0,0,1,35.75,330L39,326.745Q39.3,327.2,39.648,327.644Z" transform="translate(-30.854 -326.745)" fill="#6e8092"/>
  </g>
</svg>
