<svg id="Beauty" xmlns="http://www.w3.org/2000/svg" width="32.028" height="37.192" viewBox="0 0 32.028 37.192">
  <path id="Path_114" data-name="Path 114" d="M58.066,3.367,48.113,5.183,35.541,3.367V1.123A1.123,1.123,0,0,1,36.664,0h2.1l.561.436L39.881,0h2.993l.561.636L44,0H46.99l.561.536L48.113,0h2.993l.561.586L52.229,0h2.993l.561.374L56.345,0h.6a1.123,1.123,0,0,1,1.123,1.123Z" transform="translate(-35.541 0)" fill="#faf2f3"/>
  <g id="Group_58" data-name="Group 58" transform="translate(3.218 0)">
    <path id="Path_115" data-name="Path 115" d="M323.238,1.123V3.367l-2.245.748V1.123A1.123,1.123,0,0,0,319.871,0h2.245a1.123,1.123,0,0,1,1.122,1.123Z" transform="translate(-302.435 0)" fill="#f0e5e0"/>
    <path id="Path_116" data-name="Path 116" d="M194.282,3.367l-1.123.748V0h1.123Z" transform="translate(-184.927 0)" fill="#f0e5e0"/>
    <path id="Path_117" data-name="Path 117" d="M137.621,3.367l-1.122.748V0h1.122Z" transform="translate(-132.383 0)" fill="#f0e5e0"/>
    <path id="Path_118" data-name="Path 118" d="M80.962,3.367l-1.123.748V0h1.123Z" transform="translate(-79.839 0)" fill="#f0e5e0"/>
    <path id="Path_119" data-name="Path 119" d="M307.6,3.367l-1.122.748V0H307.6Z" transform="translate(-290.016 0)" fill="#f0e5e0"/>
    <path id="Path_120" data-name="Path 120" d="M250.942,3.367l-1.123.748V0h1.123Z" transform="translate(-237.472 0)" fill="#f0e5e0"/>
  </g>
  <path id="Path_121" data-name="Path 121" d="M53.2,73.447l-5.65,1.684-7.146-1.684L35.541,46.358H58.066Z" transform="translate(-35.541 -42.991)" fill="#ff7300"/>
  <path id="Path_122" data-name="Path 122" d="M275.471,46.358l-4.864,27.089h-2.245l4.864-27.089Z" transform="translate(-251.45 -42.991)" fill="#ff9c4b"/>
  <path id="Path_123" data-name="Path 123" d="M116.8,422.277H103.251l-.748-.748v-2.245H116.8Z" transform="translate(-97.639 -388.827)" fill="#faf2f3"/>
  <path id="Path_124" data-name="Path 124" d="M115.674,454.679H112.68l-3.031-1.384-3.031,1.384h-2.993a1.123,1.123,0,0,1-1.123-1.123v-3.367H116.8v3.367A1.123,1.123,0,0,1,115.674,454.679Z" transform="translate(-97.639 -417.487)" fill="#c3aff0"/>
  <path id="Path_125" data-name="Path 125" d="M164.476,481.095h-4.565a.748.748,0,0,0-.748.748v1.5h6.061v-1.5A.748.748,0,0,0,164.476,481.095Z" transform="translate(-150.183 -446.148)" fill="#a69ded"/>
  <path id="Path_126" data-name="Path 126" d="M130,147.16a1.115,1.115,0,0,0-.291-.753.753.753,0,0,1-.146-.754,1.119,1.119,0,0,0-.587-1.387.719.719,0,0,1-.414-.62,1.119,1.119,0,0,0-1.074-1.074.718.718,0,0,1-.62-.414,1.119,1.119,0,0,0-1.387-.587.753.753,0,0,1-.754-.146,1.119,1.119,0,0,0-1.505,0,.753.753,0,0,1-.754.146,1.119,1.119,0,0,0-1.387.587.719.719,0,0,1-.62.414,1.119,1.119,0,0,0-1.074,1.074.718.718,0,0,1-.414.62,1.119,1.119,0,0,0-.587,1.387.753.753,0,0,1-.146.754,1.119,1.119,0,0,0,0,1.505.753.753,0,0,1,.146.754,1.119,1.119,0,0,0,.587,1.387.719.719,0,0,1,.414.62,1.119,1.119,0,0,0,1.074,1.074.718.718,0,0,1,.62.414,1.119,1.119,0,0,0,1.387.587.753.753,0,0,1,.754.146,1.119,1.119,0,0,0,1.505,0,.753.753,0,0,1,.754-.146,1.119,1.119,0,0,0,1.387-.587.719.719,0,0,1,.62-.414,1.119,1.119,0,0,0,1.074-1.074.718.718,0,0,1,.414-.62,1.119,1.119,0,0,0,.587-1.387.753.753,0,0,1,.146-.754A1.115,1.115,0,0,0,130,147.16Z" transform="translate(-111.97 -130.884)" fill="#ffe07d"/>
  <path id="Path_127" data-name="Path 127" d="M160.76,187.082a3.143,3.143,0,1,1,3.143-3.143A3.143,3.143,0,0,1,160.76,187.082Z" transform="translate(-148.749 -167.663)" fill="#ffc269"/>
  <path id="Path_128" data-name="Path 128" d="M317.774,311.115h-.716a3.367,3.367,0,0,0-3.367,3.367l2.844,1.5,1.8-1.5q-1.751-1.5-.39-2.992A.224.224,0,0,0,317.774,311.115Z" transform="translate(-293.485 -288.516)" fill="#f0e5e0"/>
  <path id="Path_129" data-name="Path 129" d="M364.134,314.482l-1.615.633-.63-.633q-1.751-1.5-.391-2.992a.224.224,0,0,0-.165-.376h2.245a.224.224,0,0,1,.165.376Q362.383,312.986,364.134,314.482Z" transform="translate(-337.269 -288.516)" fill="#e2d6d1"/>
  <path id="Path_130" data-name="Path 130" d="M299.09,357.473h-5.912a1.123,1.123,0,0,0-1.122,1.123v1.871h8.157V358.6A1.122,1.122,0,0,0,299.09,357.473Z" transform="translate(-273.423 -331.506)" fill="#faf2f3"/>
  <path id="Path_131" data-name="Path 131" d="M384.019,358.6v1.871h-2.245V358.6a1.123,1.123,0,0,0-1.122-1.123H382.9A1.123,1.123,0,0,1,384.019,358.6Z" transform="translate(-355.583 -331.506)" fill="#f0e5e0"/>
  <path id="Path_132" data-name="Path 132" d="M270.183,388.378h-11a1.122,1.122,0,0,0-1.122,1.122v1.871h13.245V389.5A1.122,1.122,0,0,0,270.183,388.378Z" transform="translate(-241.896 -360.166)" fill="#596775"/>
  <path id="Path_133" data-name="Path 133" d="M418.015,389.5v1.871h-2.245V389.5a1.123,1.123,0,0,0-1.122-1.122h2.245A1.123,1.123,0,0,1,418.015,389.5Z" transform="translate(-387.11 -360.166)" fill="#35404a"/>
  <path id="Path_134" data-name="Path 134" d="M256.975,426.018H243.729a1.123,1.123,0,0,1-1.122-1.123v-4.49a1.123,1.123,0,0,1,1.122-1.123h13.245a1.123,1.123,0,0,1,1.122,1.123v4.49A1.122,1.122,0,0,1,256.975,426.018Z" transform="translate(-227.566 -388.826)" fill="#8b9ba9"/>
  <path id="Path_135" data-name="Path 135" d="M433.468,420.406v4.49a1.123,1.123,0,0,1-1.122,1.123H430.1a1.123,1.123,0,0,0,1.123-1.123v-4.49a1.123,1.123,0,0,0-1.123-1.123h2.245A1.123,1.123,0,0,1,433.468,420.406Z" transform="translate(-401.44 -388.826)" fill="#6c7a88"/>
</svg>
