<svg id="Fashion" xmlns="http://www.w3.org/2000/svg" width="37.192" height="33.335" viewBox="0 0 37.192 33.335">
  <path id="Path_108" data-name="Path 108" d="M12.108,169.146,5.581,164.02l-.59.315,3.681,22.19a1.009,1.009,0,0,0,2-.236l-.646-9.186a10.263,10.263,0,0,1,2.081-6.948Z" transform="translate(-4.628 -154.034)" fill="#ff7300"/>
  <path id="Path_109" data-name="Path 109" d="M9.682,186.438l-2.045-20.8L5.58,164.02l-.59.315,3.681,22.19a1.007,1.007,0,0,0,1.522.694A1.009,1.009,0,0,1,9.682,186.438Z" transform="translate(-4.628 -154.034)" fill="#ff9c4b"/>
  <path id="Path_110" data-name="Path 110" d="M89.86,62.782A90.992,90.992,0,0,0,78.65,46.338l-.384,1.177L89.75,69.379l5.553,2.2,5.547-1.646V69a10.969,10.969,0,0,1-10.99-6.216Z" transform="translate(-72.581 -44.901)" fill="#35404a"/>
  <path id="Path_111" data-name="Path 111" d="M95.3,71.574,97.9,70.8c-3.115-.719-6.4-2.72-8.092-7.61q-.257-.743-.519-1.463A90.23,90.23,0,0,0,78.65,46.338l-.384,1.177L85.91,62.069l.16-.062.338,1.01,3.342,6.362Z" transform="translate(-72.581 -44.901)" fill="#35404a"/>
  <path id="Path_112" data-name="Path 112" d="M3.353,26.978A1.269,1.269,0,0,1,5.275,27,51.178,51.178,0,0,1,13.146,40.66c3.864,9.561,7.253,14.419,15.316,9.881a2.528,2.528,0,0,1,2.248-.117,45.641,45.641,0,0,1,5.225,1.969,2.143,2.143,0,0,1,0,3.9A52.005,52.005,0,0,1,27.2,59.361a17.412,17.412,0,0,1-7.884.139,7,7,0,0,1-5.281-4.959A30.087,30.087,0,0,0,.363,36.851.706.706,0,0,1,0,36.225a14.063,14.063,0,0,1,3.353-9.247Z" transform="translate(0 -26.55)" fill="#596775"/>
  <g id="Group_57" data-name="Group 57" transform="translate(0 0)">
    <path id="Path_113" data-name="Path 113" d="M22.207,58.8a7,7,0,0,1-5.281-4.959,30.087,30.087,0,0,0-13.67-17.69.706.706,0,0,1-.362-.626,14.378,14.378,0,0,1,2.585-8.278c-.07-.085-.139-.168-.2-.245a1.269,1.269,0,0,0-1.922-.026A14.062,14.062,0,0,0,0,36.226a.706.706,0,0,0,.362.626,30.087,30.087,0,0,1,13.67,17.69A7,7,0,0,0,19.314,59.5a17.412,17.412,0,0,0,7.884-.139q.8-.2,1.566-.42A17.416,17.416,0,0,1,22.207,58.8Z" transform="translate(0 -26.551)" fill="#6c7a88"/>
  </g>
</svg>
