<svg xmlns="http://www.w3.org/2000/svg" width="26.789" height="37.252" viewBox="0 0 26.789 37.252">
  <g id="Garden" transform="translate(0)">
    <g id="Group_92" data-name="Group 92" transform="translate(0 0)">
      <g id="Group_90" data-name="Group 90" transform="translate(2.356)">
        <g id="Group_85" data-name="Group 85" transform="translate(0 7.122)">
          <g id="Group_81" data-name="Group 81">
            <g id="Group_79" data-name="Group 79">
              <path id="Path_296" data-name="Path 296" d="M105.321,98.063a.6.6,0,0,0-1.017.369c-.147,3.15.2,11.367,7.251,15.337,4.18,2.352,4.072-.161,4.072-.161l-.242-5.636Z" transform="translate(-104.281 -97.89)" fill="#ff8520"/>
            </g>
            <g id="Group_80" data-name="Group 80" transform="translate(3.354 6.56)">
              <path id="Path_297" data-name="Path 297" d="M156.115,195.8a.56.56,0,0,1-.377-.145,27.442,27.442,0,0,1-5.3-6.77.562.562,0,0,1,1-.517,26.791,26.791,0,0,0,5.055,6.453.562.562,0,0,1-.377.979Z" transform="translate(-150.375 -188.06)" fill="#ff9c4b"/>
            </g>
          </g>
          <g id="Group_84" data-name="Group 84" transform="translate(10.731)">
            <g id="Group_82" data-name="Group 82">
              <path id="Path_298" data-name="Path 298" d="M262.082,98.063a.6.6,0,0,1,1.017.369c.147,3.15-.2,11.367-7.251,15.337-4.18,2.352-4.072-.161-4.072-.161l.242-5.636Z" transform="translate(-251.776 -97.89)" fill="#ff8520"/>
            </g>
            <g id="Group_83" data-name="Group 83" transform="translate(1.691 6.56)">
              <path id="Path_299" data-name="Path 299" d="M275.574,195.794a.562.562,0,0,1-.377-.979,26.792,26.792,0,0,0,5.055-6.453.562.562,0,1,1,1,.517,27.441,27.441,0,0,1-5.3,6.77A.56.56,0,0,1,275.574,195.794Z" transform="translate(-275.012 -188.058)" fill="#ff9c4b"/>
            </g>
          </g>
        </g>
        <g id="Group_89" data-name="Group 89" transform="translate(7.079)">
          <g id="Group_88" data-name="Group 88">
            <g id="Group_86" data-name="Group 86">
              <path id="Path_300" data-name="Path 300" d="M206.031.321a.549.549,0,0,0-1,0c-1.065,2.472-3.461,8.591-3.461,13.577a15.529,15.529,0,0,0,3.96,10.349,15.529,15.529,0,0,0,3.96-10.349c0-4.986-2.4-11.1-3.461-13.577Z" transform="translate(-201.571 -0.001)" fill="#f16c00"/>
            </g>
            <g id="Group_87" data-name="Group 87" transform="translate(3.398 9.368)">
              <path id="Path_301" data-name="Path 301" d="M248.836,141.524a.562.562,0,0,1-.562-.562V129.323a.562.562,0,1,1,1.124,0v11.639A.562.562,0,0,1,248.836,141.524Z" transform="translate(-248.274 -128.761)" fill="#ff9c4b"/>
            </g>
          </g>
        </g>
      </g>
      <g id="Group_91" data-name="Group 91" transform="translate(0 21.423)">
        <path id="Path_302" data-name="Path 302" d="M114.685,332.809a1.8,1.8,0,0,0,1.748-1.388l2.955-12.673H101.4l2.955,12.673a1.8,1.8,0,0,0,1.748,1.388Z" transform="translate(-99.255 -316.981)" fill="#8997a5"/>
        <path id="Path_303" data-name="Path 303" d="M283.013,318.749l-2.955,12.673a1.8,1.8,0,0,1-1.748,1.388h4.922a1.8,1.8,0,0,0,1.748-1.388l2.955-12.673Z" transform="translate(-263.292 -316.981)" fill="#6c7a88"/>
        <path id="Path_304" data-name="Path 304" d="M94.048,296.054a1.607,1.607,0,0,0-1.607-1.607H73.512a1.607,1.607,0,0,0,0,3.215H92.441A1.608,1.608,0,0,0,94.048,296.054Z" transform="translate(-71.904 -294.447)" fill="#6c7a88"/>
        <path id="Path_305" data-name="Path 305" d="M354.993,294.446h-4.944a1.607,1.607,0,1,1,0,3.215h4.944a1.607,1.607,0,0,0,0-3.215Z" transform="translate(-329.812 -294.446)" fill="#596775"/>
      </g>
    </g>
  </g>
</svg>
