<svg xmlns="http://www.w3.org/2000/svg" width="30.842" height="34.06" viewBox="0 0 30.842 34.06">
  <g id="Home" transform="translate(-24.184 0.001)">
    <g id="Group_60" data-name="Group 60" transform="translate(27.757 3.193)">
      <path id="Path_177" data-name="Path 177" d="M89.742,48.007,77.894,59.532v16.93h23.7V59.532Z" transform="translate(-77.894 -48.007)" fill="#dfebfa"/>
    </g>
    <path id="Path_178" data-name="Path 178" d="M80.7,61.261a1.5,1.5,0,0,1,.453-1.073L91.711,49.922l-1.969-1.915L77.894,59.532v16.93H80.7Z" transform="translate(-50.137 -44.814)" fill="#b1dbfc"/>
    <g id="Group_62" data-name="Group 62" transform="translate(46.866 2.41)">
      <g id="Group_61" data-name="Group 61" transform="translate(0)">
        <path id="Path_179" data-name="Path 179" d="M365.151,36.245v4.3l3.794,3.691V36.245Z" transform="translate(-365.151 -36.245)" fill="#565959"/>
      </g>
    </g>
    <path id="Path_180" data-name="Path 180" d="M367.348,40.834a.992.992,0,0,1-.3-.711V36.245h-1.9v4.3l3.794,3.691V42.387Z" transform="translate(-318.285 -33.835)" fill="#404242"/>
    <path id="Path_181" data-name="Path 181" d="M54.6,14.021,40.595.4a1.419,1.419,0,0,0-1.979,0l-14,13.62a1.419,1.419,0,0,0,1.979,2.035L39.411,3.588a.279.279,0,0,1,.389,0L52.618,16.056A1.419,1.419,0,0,0,54.6,14.021Z" transform="translate(0 0)" fill="#ff9c4b"/>
    <g id="Group_63" data-name="Group 63" transform="translate(24.184 -0.001)">
      <path id="Path_182" data-name="Path 182" d="M39.411,3.588a.277.277,0,0,1,.173-.077L40.832,2.3a1.417,1.417,0,0,1,1.348-.355L40.595.4a1.419,1.419,0,0,0-1.979,0l-14,13.62a1.419,1.419,0,1,0,1.979,2.035Z" transform="translate(-24.184 0.001)" fill="#ff7300"/>
    </g>
    <path id="Path_183" data-name="Path 183" d="M354.6,2.121V.5a.5.5,0,0,0-.5-.5h-5a.5.5,0,0,0-.5.5V2.121a.5.5,0,0,0,.5.5h5a.5.5,0,0,0,.5-.5Z" transform="translate(-302.841 -0.001)" fill="#565959"/>
    <path id="Path_184" data-name="Path 184" d="M350.5,2.121V.5A.5.5,0,0,1,351,0h-1.9a.5.5,0,0,0-.5.5V2.121a.5.5,0,0,0,.5.5H351a.5.5,0,0,1-.5-.5Z" transform="translate(-302.841 -0.001)" fill="#404242"/>
    <path id="Path_185" data-name="Path 185" d="M119.1,282.861h7.948v12.832H119.1Z" transform="translate(-88.605 -264.045)" fill="#adaca7"/>
    <path id="Path_186" data-name="Path 186" d="M119.1,282.861h2.574v12.832H119.1Z" transform="translate(-88.605 -264.045)" fill="#989790"/>
    <path id="Path_187" data-name="Path 187" d="M273.423,283.891v9.6a.383.383,0,0,0,.383.383h7.181a.383.383,0,0,0,.383-.383v-9.6Z" transform="translate(-232.659 -265.006)" fill="#ff9c4b"/>
    <path id="Path_188" data-name="Path 188" d="M276,293.487v-9.6h-2.574v9.6a.383.383,0,0,0,.383.383h2.574A.383.383,0,0,1,276,293.487Z" transform="translate(-232.659 -265.006)" fill="#ffb375"/>
    <path id="Path_189" data-name="Path 189" d="M277.911,283.96a.518.518,0,0,0-.005-.069h-1.018a.524.524,0,0,0-.005.069V288.4h-3.46v1.028h3.46v4.441h1.028v-4.441h3.46V288.4h-3.46V283.96Z" transform="translate(-232.659 -265.006)" fill="#f98628"/>
    <path id="Path_190" data-name="Path 190" d="M273.423,351.689H276v1.028h-2.574Z" transform="translate(-232.659 -328.294)" fill="#ffb375"/>
    <path id="Path_191" data-name="Path 191" d="M280.987,247.41h-7.181a.383.383,0,0,0-.383.383v2.112h7.948v-2.112A.383.383,0,0,0,280.987,247.41Z" transform="translate(-232.659 -230.952)" fill="#ffb375"/>
    <path id="Path_192" data-name="Path 192" d="M276.38,247.41h-2.574a.383.383,0,0,0-.383.383v2.112H276v-2.112A.383.383,0,0,1,276.38,247.41Z" transform="translate(-232.659 -230.952)" fill="#ff7300"/>
    <path id="Path_193" data-name="Path 193" d="M126.668,247.41h-7.181a.383.383,0,0,0-.383.383v2.112h7.948v-2.112A.383.383,0,0,0,126.668,247.41Z" transform="translate(-88.605 -230.952)" fill="#cbc9c2"/>
    <path id="Path_194" data-name="Path 194" d="M122.061,247.41h-2.574a.383.383,0,0,0-.383.383v2.112h2.574v-2.112A.383.383,0,0,1,122.061,247.41Z" transform="translate(-88.605 -230.952)" fill="#adaca7"/>
    <circle id="Ellipse_48" data-name="Ellipse 48" cx="1.029" cy="1.029" r="1.029" transform="translate(34.648 23.447)" fill="#dfebfa"/>
    <path id="Path_195" data-name="Path 195" d="M88.117,472.664H63.42a.5.5,0,0,0-.5.5v1.626a.5.5,0,0,0,.5.5h24.7a.5.5,0,0,0,.5-.5V473.16A.5.5,0,0,0,88.117,472.664Z" transform="translate(-36.163 -441.222)" fill="#ff9c4b"/>
    <path id="Path_196" data-name="Path 196" d="M66.059,474.784v-1.626a.5.5,0,0,1,.5-.5H63.42a.5.5,0,0,0-.5.5v1.626a.5.5,0,0,0,.5.5h3.135A.5.5,0,0,1,66.059,474.784Z" transform="translate(-36.163 -441.221)" fill="#ff7300"/>
  </g>
</svg>
