<svg xmlns="http://www.w3.org/2000/svg" width="36.749" height="29.811" viewBox="0 0 36.749 29.811">
  <g id="Luxury" transform="translate(0)">
    <path id="Path_288" data-name="Path 288" d="M29.619,48.777a1.078,1.078,0,0,0-.874-.447H7.637a1.078,1.078,0,0,0-.89.469L0,58.655,18.18,78.072a.218.218,0,0,0,.164.069l.019,0a.217.217,0,0,0,.137-.067L36.749,58.655Z" transform="translate(0 -48.33)" fill="#ff7300"/>
    <path id="Path_289" data-name="Path 289" d="M13.787,48.33H7.637a1.078,1.078,0,0,0-.89.469L0,58.655H10.92Z" transform="translate(0 -48.33)" fill="#ff9c4b"/>
    <path id="Path_290" data-name="Path 290" d="M331.678,58.655l-7.131-9.878a1.078,1.078,0,0,0-.874-.447h-5.939l3.024,10.325h10.92Z" transform="translate(-294.928 -48.33)" fill="#f16c00"/>
    <path id="Path_291" data-name="Path 291" d="M18.292,211.626,10.92,192.177H0l18.18,19.417a.218.218,0,0,0,.164.069A.058.058,0,0,1,18.292,211.626Z" transform="translate(0 -181.852)" fill="#ff8520"/>
    <path id="Path_292" data-name="Path 292" d="M274.226,192.177h-10.92l-7.427,19.449a.058.058,0,0,1-.039.036.217.217,0,0,0,.137-.067Z" transform="translate(-237.477 -181.852)" fill="#e26600"/>
    <path id="Path_293" data-name="Path 293" d="M167.044,58.655,164.02,48.33H155l-2.868,10.325Z" transform="translate(-141.215 -48.33)" fill="#ff8520"/>
    <path id="Path_294" data-name="Path 294" d="M159.617,211.627l7.427-19.449h-14.91l7.372,19.449a.058.058,0,0,0,.053.038l.019,0A.058.058,0,0,0,159.617,211.627Z" transform="translate(-141.215 -181.853)" fill="#f16c00"/>
    <path id="Path_295" data-name="Path 295" d="M131.484,170.909l.684-.511a.183.183,0,0,1,.273.23l-.388.76a.184.184,0,0,0,.058.233l.7.493a.183.183,0,0,1-.135.331l-.843-.134a.184.184,0,0,0-.2.127l-.253.815a.183.183,0,0,1-.357-.026l-.133-.843a.184.184,0,0,0-.184-.155l-.854.011a.183.183,0,0,1-.086-.347l.761-.387a.183.183,0,0,0,.091-.223l-.274-.808a.183.183,0,0,1,.3-.189l.6.6A.184.184,0,0,0,131.484,170.909Z" transform="translate(-120.354 -161.483)" fill="#fff"/>
  </g>
</svg>
