<svg id="Man" xmlns="http://www.w3.org/2000/svg" width="36.749" height="36.749" viewBox="0 0 36.749 36.749">
  <path id="Path_235" data-name="Path 235" d="M0,78.337l1.479,8.134,2.207-.278,1.479-4.619L2.135,77.7Z" transform="translate(0 -72.126)" fill="#ff7300"/>
  <path id="Path_236" data-name="Path 236" d="M34.971,56.1l2.218,9.3-5.89.741-1.55-8.49Z" transform="translate(-27.614 -52.075)" fill="#fe8523"/>
  <path id="Path_237" data-name="Path 237" d="M194.239,0H183.887l.739,5.841H193.5Z" transform="translate(-170.688)" fill="#35404a"/>
  <path id="Path_238" data-name="Path 238" d="M445.213,78.337l-1.479,8.134-2.207-.278-1.479-4.619,3.029-3.871Z" transform="translate(-408.464 -72.126)" fill="#f16c00"/>
  <path id="Path_239" data-name="Path 239" d="M380.81,56.1l-2.218,9.3,5.89.741,1.55-8.49Z" transform="translate(-351.418 -52.075)" fill="#ff9c4b"/>
  <path id="Path_240" data-name="Path 240" d="M349.9,46.8l-2.218,12.8L349.9,80.19h2.218V47.468Z" transform="translate(-322.731 -43.441)" fill="#f16c00"/>
  <path id="Path_241" data-name="Path 241" d="M121.49,41.371l-4.691-.164h-7.345l-3.9.164-3.048.9V75h19.816V41.609Z" transform="translate(-95.146 -38.249)" fill="#ff9c4b"/>
  <g id="Group_73" data-name="Group 73" transform="translate(10.405)">
    <path id="Path_242" data-name="Path 242" d="M147.76,0l-2.794,3.122,4.272,4.272,2.588-4.437Z" transform="translate(-144.967)" fill="#f16c00"/>
    <path id="Path_243" data-name="Path 243" d="M275.52,0l2.793,3.122-4.272,4.272-2.588-4.437Z" transform="translate(-262.374)" fill="#f16c00"/>
  </g>
  <rect id="Rectangle_151" data-name="Rectangle 151" width="2.218" height="8.873" transform="translate(17.265 2.958)" fill="#f16c00"/>
</svg>
