<svg id="Sports" xmlns="http://www.w3.org/2000/svg" width="29" height="29" viewBox="0 0 29 29">
  <circle id="Ellipse_47" data-name="Ellipse 47" cx="14.5" cy="14.5" r="14.5" fill="#ff9c4b"/>
  <g id="Group_59" data-name="Group 59" transform="translate(0 0)">
    <path id="Path_175" data-name="Path 175" d="M5.154,14.477A14.544,14.544,0,0,1,17.275.222,15.01,15.01,0,0,0,14.7,0,14.589,14.589,0,0,0,0,14.477,14.589,14.589,0,0,0,14.7,28.953a15.006,15.006,0,0,0,2.577-.222A14.544,14.544,0,0,1,5.154,14.477Z" transform="translate(0 0)" fill="#ff7300"/>
    <path id="Path_176" data-name="Path 176" d="M23.351,10.7A4.877,4.877,0,0,0,27.27,7.87q-.271-.509-.58-.993a3.986,3.986,0,0,1-3.551,2.969A17.97,17.97,0,0,0,21.5,5.861,18.224,18.224,0,0,0,16.783.373,14.545,14.545,0,0,0,15.032.2a17.166,17.166,0,0,1,7.231,9.746c-2.6.159-4.346-1.032-6.345-2.4A26.827,26.827,0,0,0,12.925,5.7,25.379,25.379,0,0,0,5.7,3.156q-.468.357-.905.751a23.481,23.481,0,0,1,7.732,2.572,26.153,26.153,0,0,1,2.9,1.794c1.924,1.314,3.754,2.564,6.371,2.564.223,0,.452-.01.687-.029a17.312,17.312,0,0,1,.429,3.428H.007c0,.145-.007.291-.007.437s0,.292.007.437H22.913a17.316,17.316,0,0,1-.429,3.428c-2.991-.24-4.97,1.109-7.058,2.535a26.153,26.153,0,0,1-2.9,1.794A23.482,23.482,0,0,1,4.8,25.439q.437.393.905.751a25.378,25.378,0,0,0,7.223-2.544,26.84,26.84,0,0,0,2.993-1.852c2-1.365,3.744-2.556,6.345-2.4a17.166,17.166,0,0,1-7.231,9.746,14.557,14.557,0,0,0,1.751-.171A18.223,18.223,0,0,0,21.5,23.485,17.977,17.977,0,0,0,23.139,19.5a3.987,3.987,0,0,1,3.551,2.969q.309-.484.58-.993a4.88,4.88,0,0,0-3.919-2.826,18.157,18.157,0,0,0,.436-3.539h5.17c0-.145.007-.291.007-.437s0-.292-.007-.437h-5.17a18.154,18.154,0,0,0-.436-3.539Z" transform="translate(0 -0.19)" fill="#ff7300"/>
  </g>
</svg>
