<svg xmlns="http://www.w3.org/2000/svg" width="30.437" height="36.749" viewBox="0 0 30.437 36.749">
  <g id="Toys" transform="translate(0)">
    <path id="Path_250" data-name="Path 250" d="M231.48,374.113c.32.923.586,1.869.818,2.818a19.725,19.725,0,0,1,.584,3.11,4.174,4.174,0,0,1-.823,3.139,3.041,3.041,0,0,1-3.612.423c-1.33-.847-1.636-2.538-2.023-3.945a29.139,29.139,0,0,1-.752-4.2Zm0,0" transform="translate(-209.474 -347.261)" fill="#ff7300"/>
    <path id="Path_251" data-name="Path 251" d="M278.344,383.183a3.019,3.019,0,0,1-2.809.752,2.635,2.635,0,0,0,1.377-.752,4.174,4.174,0,0,0,.823-3.138,19.794,19.794,0,0,0-.584-3.11c-.206-.844-.439-1.686-.714-2.511l1.327-.307c.32.923.586,1.868.818,2.818a19.835,19.835,0,0,1,.584,3.11A4.175,4.175,0,0,1,278.344,383.183Zm0,0" transform="translate(-255.759 -347.265)" fill="#f16000"/>
    <path id="Path_252" data-name="Path 252" d="M99.063,374.113c-.32.923-.586,1.869-.818,2.818a19.786,19.786,0,0,0-.584,3.11,4.174,4.174,0,0,0,.823,3.139,3.042,3.042,0,0,0,3.612.423c1.33-.847,1.637-2.538,2.023-3.945a29.1,29.1,0,0,0,.752-4.2Zm0,0" transform="translate(-90.631 -347.261)" fill="#ff7300"/>
    <path id="Path_253" data-name="Path 253" d="M98.48,383.183a3.02,3.02,0,0,0,2.809.752,2.635,2.635,0,0,1-1.377-.752,4.175,4.175,0,0,1-.823-3.138,19.825,19.825,0,0,1,.584-3.11c.206-.844.44-1.686.714-2.511l-1.327-.307c-.32.923-.586,1.868-.818,2.818a19.865,19.865,0,0,0-.584,3.11A4.175,4.175,0,0,0,98.48,383.183Zm0,0" transform="translate(-90.628 -347.265)" fill="#f16000"/>
    <path id="Path_254" data-name="Path 254" d="M301.249,235.3A13.331,13.331,0,0,1,305.9,238a3.06,3.06,0,0,1,.308,4.008c-1.284,1.545-3.336.935-4.815.091a11.66,11.66,0,0,1-1.713-1.162c-.231-.193-2.1-1.841-1.914-2.111l2.688-3.813.8.281Zm0,0" transform="translate(-276.382 -218.148)" fill="#ff7300"/>
    <path id="Path_255" data-name="Path 255" d="M330.912,242.008a2.769,2.769,0,0,1-.406.4,3.165,3.165,0,0,0-.726-3.3,13.327,13.327,0,0,0-4.651-2.706l-.762-.271.791-1.123.8.282A13.327,13.327,0,0,1,330.6,238,3.06,3.06,0,0,1,330.912,242.008Zm0,0" transform="translate(-301.086 -218.144)" fill="#f16000"/>
    <path id="Path_256" data-name="Path 256" d="M5.57,235.3A13.325,13.325,0,0,0,.92,238a3.06,3.06,0,0,0-.308,4.008c1.285,1.545,3.336.935,4.815.091a11.649,11.649,0,0,0,1.713-1.162c.231-.193,2.1-1.841,1.914-2.111l-2.688-3.813-.795.281Zm0,0" transform="translate(-0.001 -218.148)" fill="#ff7300"/>
    <path id="Path_257" data-name="Path 257" d="M.611,242.008a2.757,2.757,0,0,0,.406.4,3.164,3.164,0,0,1,.725-3.3,13.327,13.327,0,0,1,4.651-2.706l.762-.271-.791-1.123-.8.282A13.327,13.327,0,0,0,.92,238a3.06,3.06,0,0,0-.308,4.008Zm0,0" transform="translate(-0.001 -218.144)" fill="#f16000"/>
    <path id="Path_258" data-name="Path 258" d="M99.158,269.573c-.16-.3-1.162-2.3-1.613-2.3h-13.4c-.452,0-1.453,2-1.613,2.3a8.191,8.191,0,0,0,.234,7.941c2.588,4.193,9.27,4.877,13.455,2.539a7.387,7.387,0,0,0,2.707-2.538,8.191,8.191,0,0,0,.234-7.942Zm0,0" transform="translate(-75.757 -248.093)" fill="#ff9c4b"/>
    <path id="Path_259" data-name="Path 259" d="M238.487,277.52a7.391,7.391,0,0,1-2.708,2.539,10.746,10.746,0,0,1-3.811,1.223,10.266,10.266,0,0,0,2.638-1.008,7.391,7.391,0,0,0,2.708-2.538,8.191,8.191,0,0,0,.234-7.942c-.16-.3-1.161-2.3-1.613-2.3l1.172-.215c.452,0,1.453,2,1.614,2.3A8.192,8.192,0,0,1,238.487,277.52Zm0,0" transform="translate(-215.319 -248.097)" fill="#f16c00"/>
    <path id="Path_260" data-name="Path 260" d="M265.956,3.919A3.919,3.919,0,1,1,262.036,0a3.919,3.919,0,0,1,3.919,3.919Zm0,0" transform="translate(-239.591 0)" fill="#ff7300"/>
    <path id="Path_261" data-name="Path 261" d="M290.227,5.127a3.921,3.921,0,0,1-5.962,3.346,3.92,3.92,0,0,0,2.9-7.173A3.921,3.921,0,0,1,290.227,5.127Zm0,0" transform="translate(-263.862 -1.207)" fill="#f16000"/>
    <path id="Path_262" data-name="Path 262" d="M286.051,32.027a1.981,1.981,0,1,1-1.981-1.981A1.981,1.981,0,0,1,286.051,32.027Zm0,0" transform="translate(-261.843 -27.89)" fill="#fcf6ed"/>
    <path id="Path_263" data-name="Path 263" d="M291.893,32.376a1.981,1.981,0,0,1-3.51,1.259,2.038,2.038,0,0,0,.328.027,1.981,1.981,0,0,0,1.529-3.24A1.981,1.981,0,0,1,291.893,32.376Zm0,0" transform="translate(-267.684 -28.238)" fill="#eae1d7"/>
    <path id="Path_264" data-name="Path 264" d="M60.89,3.919A3.919,3.919,0,1,1,56.971,0,3.92,3.92,0,0,1,60.89,3.919Zm0,0" transform="translate(-49.243 0)" fill="#ff7300"/>
    <path id="Path_265" data-name="Path 265" d="M53.055,5.127a3.921,3.921,0,0,0,5.962,3.346,3.92,3.92,0,0,1-2.9-7.173,3.921,3.921,0,0,0-3.066,3.826Zm0,0" transform="translate(-49.247 -1.207)" fill="#f16000"/>
    <path id="Path_266" data-name="Path 266" d="M87.059,32.027a1.981,1.981,0,1,1-1.981-1.981A1.981,1.981,0,0,1,87.059,32.027Zm0,0" transform="translate(-77.133 -27.89)" fill="#fcf6ed"/>
    <path id="Path_267" data-name="Path 267" d="M83.1,32.376a1.981,1.981,0,0,0,3.51,1.259,2.037,2.037,0,0,1-.328.027,1.981,1.981,0,0,1-1.529-3.24A1.981,1.981,0,0,0,83.1,32.376Zm0,0" transform="translate(-77.133 -28.238)" fill="#eae1d7"/>
    <path id="Path_268" data-name="Path 268" d="M75.81,45.939c0-5.438-5.042-9.846-11.262-9.846S53.286,40.5,53.286,45.939s5.042,9.846,11.262,9.846S75.81,51.377,75.81,45.939Zm0,0" transform="translate(-49.461 -33.502)" fill="#ffaf6d"/>
    <path id="Path_269" data-name="Path 269" d="M159.117,52.549c0,5.438-5.042,9.847-11.261,9.847a12.574,12.574,0,0,1-4.82-.945,12.731,12.731,0,0,0,3.589.511c6.22,0,11.262-4.408,11.262-9.847a9.849,9.849,0,0,0-6.442-8.9c4.459,1.31,7.672,4.994,7.672,9.335Zm0,0" transform="translate(-132.769 -40.112)" fill="#fc953f"/>
    <path id="Path_270" data-name="Path 270" d="M157.908,158.679a1.64,1.64,0,0,0-.986-.014,5.42,5.42,0,0,0-3.227,2.733,3.611,3.611,0,0,0-.393,1.933,3.056,3.056,0,0,0,.945,1.866,4.612,4.612,0,0,0,6.406-.2C162.546,162.971,160.635,159.586,157.908,158.679Zm0,0" transform="translate(-142.285 -147.212)" fill="#fcf6ed"/>
    <path id="Path_271" data-name="Path 271" d="M201.094,165a4.64,4.64,0,0,1-4.239,1.308A4.446,4.446,0,0,0,199.277,165c1.8-1.934.155-5.1-2.363-6.177q.221-.091.45-.16a1.641,1.641,0,0,1,.985.015C201.076,159.587,202.987,162.972,201.094,165Zm0,0" transform="translate(-182.726 -147.214)" fill="#eae1d7"/>
    <g id="Group_75" data-name="Group 75" transform="translate(10.609 8.376)">
      <path id="Path_272" data-name="Path 272" d="M148.354,118.511a.538.538,0,0,1-.538-.538v-.739a.538.538,0,1,1,1.077,0v.739A.538.538,0,0,1,148.354,118.511Zm0,0" transform="translate(-147.816 -116.695)" fill="#35404a"/>
      <path id="Path_273" data-name="Path 273" d="M258.1,118.511a.538.538,0,0,1-.538-.538v-.739a.538.538,0,0,1,1.077,0v.739A.538.538,0,0,1,258.1,118.511Zm0,0" transform="translate(-249.689 -116.695)" fill="#35404a"/>
      <path id="Path_274" data-name="Path 274" d="M181.323,150.221a9.818,9.818,0,0,0-3.206,0,.988.988,0,0,0-.642,1.419,2.331,2.331,0,0,0,4.49,0A.988.988,0,0,0,181.323,150.221Zm0,0" transform="translate(-175.242 -147.689)" fill="#596775"/>
    </g>
    <path id="Path_275" data-name="Path 275" d="M204.236,151.636a2.816,2.816,0,0,1-2.245,1.7,2.176,2.176,0,0,1-.635-.128,3.15,3.15,0,0,0,1.61-1.576.988.988,0,0,0-.642-1.419,5.713,5.713,0,0,0-.967-.125c.365-.018.634-.007.634-.007a6.96,6.96,0,0,1,1.6.132.988.988,0,0,1,.641,1.419Zm0,0" transform="translate(-186.903 -139.309)" fill="#35404a"/>
    <path id="Path_276" data-name="Path 276" d="M187.335,220.654a2.1,2.1,0,0,1-1.676-.823.538.538,0,1,1,.851-.659,1.042,1.042,0,0,0,1.649,0,.538.538,0,0,1,.852.659A2.1,2.1,0,0,1,187.335,220.654Zm0,0" transform="translate(-172.23 -203.247)" fill="#35404a"/>
    <path id="Path_277" data-name="Path 277" d="M98.916,172.209a1.271,1.271,0,1,1-1.27-1.271A1.271,1.271,0,0,1,98.916,172.209Zm0,0" transform="translate(-89.457 -158.669)" fill="#f6913e"/>
    <path id="Path_278" data-name="Path 278" d="M291.143,172.209a1.271,1.271,0,1,1-1.27-1.271A1.27,1.27,0,0,1,291.143,172.209Zm0,0" transform="translate(-267.887 -158.669)" fill="#f6913e"/>
  </g>
</svg>
